<svg xmlns="http://www.w3.org/2000/svg" xmlns:xlink="http://www.w3.org/1999/xlink" width="800px" height="800px" viewBox="0 0 512 512" overflow="visible" xml:space="preserve"><g id="Layer_1"></g><g id="Layer_2"></g><g id="Layer_3"></g><g id="Layer_4"></g><g id="Layer_5"></g><g id="Layer_6"></g><g id="Layer_7"></g><g id="Layer_8"></g><g id="Layer_9"></g><g id="Layer_10"></g><g id="Layer_11"></g><g id="Layer_12"></g><g id="Layer_13"></g><g id="Layer_14"></g><g id="Layer_15"></g><g id="Layer_16"></g><g id="Layer_17"></g><g id="Layer_18"></g><g id="Layer_19"></g><g id="Layer_20"></g><g id="Layer_21"></g><g id="Layer_22"></g><g id="Layer_23"></g><g id="Layer_24"></g><g id="Layer_25"></g><g id="Layer_26"></g><g id="Layer_27"></g><g id="Layer_28"></g><g id="Layer_29"></g><g id="Layer_30"></g><g id="Layer_31"></g><g id="Layer_32"></g><g id="Layer_33"></g><g id="Layer_34"></g><g id="Layer_35"></g><g id="Layer_36"></g><g id="Layer_37"></g><g id="Layer_38"></g><g id="Layer_39"></g><g id="Layer_40"></g><g id="Layer_41"></g><g id="Layer_42"></g><g id="Layer_43"></g><g id="Layer_44"></g><g id="Layer_45"></g><g id="Layer_46"></g><g id="Layer_47"></g><g id="Layer_48"></g><g id="Layer_49"></g><g id="Layer_50"><g><path d="M460.287,331.6C443.179,251.687,358.228,190.965,256,190.965c-102.228,0-187.179,60.722-204.287,140.635    H460.287z" fill="#FFBE73"></path><polygon fill="#D97C41" points="442.586,472.716 69.414,472.716 46.109,380.79 465.891,380.79   "></polygon><polygon fill="#C76D33" points="445.891,380.79 422.586,472.716 442.586,472.716 465.891,380.79   "></polygon><path d="M482.813,382.591H29.187c-11.977,0-21.687-9.709-21.687-21.687v-7.618    c0-11.977,9.709-21.687,21.687-21.687h453.627c11.977,0,21.687,9.709,21.687,21.687v7.618    C504.5,372.881,494.791,382.591,482.813,382.591z" fill="#FF9000"></path><path d="M256,190.965c-3.353,0-6.686,0.069-10,0.198c97.727,3.809,177.74,63.145,194.287,140.436h20    C443.179,251.687,358.228,190.965,256,190.965z" fill="#FFB25A"></path><path d="M482.813,331.6h-20c11.977,0,21.687,9.709,21.687,21.687v7.618c0,11.977-9.709,21.687-21.687,21.687h20    c11.977,0,21.687-9.709,21.687-21.687v-7.618C504.5,341.309,494.791,331.6,482.813,331.6z" fill="#F88000"></path><circle cx="260.974" cy="190.965" fill="#F54432" r="29.499"></circle><circle cx="161.4" cy="211.901" fill="#59C230" r="29.499"></circle><circle cx="85.315" cy="270.9" fill="#F54432" r="29.499"></circle><circle cx="360.307" cy="211.901" fill="#59C230" r="29.499"></circle><circle cx="436.392" cy="270.9" fill="#F54432" r="29.499"></circle><path d="M260.974,161.466c-1.705,0-3.374,0.153-5,0.43c13.909,2.376,24.5,14.482,24.5,29.069    c0,14.587-10.59,26.693-24.5,29.069c1.626,0.278,3.295,0.43,5,0.43c16.292,0,29.5-13.207,29.5-29.5    C290.474,174.673,277.266,161.466,260.974,161.466z" fill="#E83826"></path><path d="M161.4,182.402c-1.705,0-3.374,0.153-5,0.431c13.909,2.376,24.5,14.482,24.5,29.069    s-10.59,26.693-24.5,29.069c1.626,0.278,3.295,0.431,5,0.431c16.292,0,29.5-13.208,29.5-29.5    C190.899,195.609,177.692,182.402,161.4,182.402z" fill="#4EB229"></path><path d="M85.315,241.401c-1.705,0-3.374,0.153-5,0.43c13.909,2.376,24.499,14.482,24.499,29.069    c0,14.587-10.59,26.693-24.499,29.069c1.626,0.278,3.295,0.43,5,0.43c16.292,0,29.499-13.207,29.499-29.5    C114.814,254.608,101.607,241.401,85.315,241.401z" fill="#E83826"></path><path d="M360.307,182.402c-1.705,0-3.374,0.153-5,0.431c13.909,2.376,24.5,14.482,24.5,29.069    s-10.59,26.693-24.5,29.069c1.626,0.278,3.295,0.431,5,0.431c16.292,0,29.5-13.208,29.5-29.5    C389.806,195.609,376.599,182.402,360.307,182.402z" fill="#4EB229"></path><path d="M436.392,241.401c-1.705,0-3.374,0.153-5,0.43c13.909,2.376,24.499,14.482,24.499,29.069    c0,14.587-10.59,26.693-24.499,29.069c1.626,0.278,3.295,0.43,5,0.43c16.292,0,29.499-13.207,29.499-29.5    C465.891,254.608,452.684,241.401,436.392,241.401z" fill="#E83826"></path></g><g><g><path d="M188.471,203.952c-3.271,0-6.277-2.156-7.212-5.459c-1.128-3.985,1.188-8.131,5.173-9.259     c14.324-4.057,29.244-6.849,44.346-8.3c4.125-0.393,7.787,2.626,8.183,6.748c0.396,4.124-2.625,7.787-6.749,8.184     c-14.207,1.365-28.235,3.989-41.694,7.8C189.835,203.859,189.147,203.952,188.471,203.952z"></path></g><g><path d="M414.354,255.03c-1.88,0-3.763-0.703-5.22-2.115c-8.474-8.214-17.955-15.763-28.178-22.434     c-3.469-2.264-4.446-6.911-2.182-10.38c2.264-3.469,6.912-4.445,10.379-2.183c11.025,7.195,21.26,15.346,30.421,24.227     c2.974,2.883,3.048,7.631,0.165,10.604C418.269,254.268,416.312,255.03,414.354,255.03z"></path></g><g><path d="M460.285,335.35H51.705c-2.265,0-4.408-1.023-5.832-2.784c-1.424-1.762-1.976-4.071-1.502-6.286     c2.987-13.947,7.996-27.567,14.887-40.48c1.95-3.653,6.493-5.037,10.148-3.085c3.654,1.95,5.036,6.493,3.085,10.147     c-4.726,8.855-8.471,18.067-11.18,27.488h389.367c-2.256-7.851-5.232-15.561-8.889-23.018c-1.823-3.719-0.287-8.212,3.433-10.036     c3.717-1.822,8.212-0.287,10.036,3.433c5.595,11.412,9.753,23.373,12.36,35.552c0.474,2.214-0.078,4.524-1.502,6.285     S462.549,335.35,460.285,335.35z"></path></g><g><path d="M332.236,206.592c-0.768,0-1.549-0.119-2.318-0.369c-12.995-4.221-26.647-7.334-40.577-9.253     c-4.104-0.565-6.972-4.35-6.406-8.453c0.565-4.103,4.341-6.975,8.453-6.406c14.806,2.039,29.328,5.352,43.164,9.847     c3.939,1.279,6.096,5.511,4.816,9.45C338.338,204.576,335.398,206.592,332.236,206.592z"></path></g><g><path d="M102.377,250.6c-2.044,0-4.08-0.83-5.561-2.464c-2.781-3.07-2.547-7.812,0.522-10.594     c9.934-9.001,21.052-17.188,33.047-24.335c3.559-2.12,8.163-0.954,10.282,2.604c2.12,3.559,0.955,8.162-2.604,10.282     c-11.142,6.638-21.455,14.229-30.653,22.563C105.975,249.958,104.173,250.6,102.377,250.6z"></path></g><g><path d="M442.584,476.47H69.405c-3.433,0-6.427-2.33-7.27-5.657l-22.84-90.13c-1.018-4.016,1.413-8.096,5.428-9.113     c4.016-1.015,8.095,1.413,9.112,5.428l21.407,84.473h361.507l21.407-84.473c1.017-4.015,5.097-6.444,9.112-5.428     c4.015,1.018,6.445,5.098,5.428,9.113l-22.84,90.13C449.012,474.14,446.017,476.47,442.584,476.47z"></path></g><g><path d="M482.808,386.341H29.181c-16.094,0-29.187-13.093-29.187-29.187v-7.618c0-16.094,13.093-29.187,29.187-29.187h453.627     c16.094,0,29.187,13.093,29.187,29.187v7.618C511.995,373.248,498.902,386.341,482.808,386.341z M29.181,335.35     c-7.822,0-14.187,6.364-14.187,14.187v7.618c0,7.822,6.364,14.187,14.187,14.187h453.627c7.822,0,14.187-6.364,14.187-14.187     v-7.618c0-7.822-6.364-14.187-14.187-14.187H29.181z"></path></g><g><path d="M260.969,224.215c-20.401,0-37-16.598-37-37c0-20.401,16.598-36.999,37-36.999s36.999,16.598,36.999,36.999     C297.968,207.617,281.371,224.215,260.969,224.215z M260.969,165.216c-12.13,0-22,9.869-22,21.999c0,12.131,9.869,22,22,22     s21.999-9.869,21.999-22C282.968,175.085,273.1,165.216,260.969,165.216z"></path></g><g><path d="M161.395,245.15c-20.401,0-37-16.598-37-36.999s16.598-36.999,37-36.999s37,16.598,37,36.999     S181.796,245.15,161.395,245.15z M161.395,186.152c-12.13,0-22,9.869-22,21.999s9.869,21.999,22,21.999s22-9.869,22-21.999     S173.525,186.152,161.395,186.152z"></path></g><g><path d="M85.31,304.149c-20.401,0-37-16.598-37-36.999c0-20.402,16.598-37,37-37s37,16.598,37,37     C122.309,287.552,105.711,304.149,85.31,304.149z M85.31,245.15c-12.13,0-22,9.869-22,22c0,12.13,9.869,21.999,22,21.999     s22-9.869,22-21.999C107.309,255.02,97.44,245.15,85.31,245.15z"></path></g><g><path d="M360.301,245.15c-20.401,0-37-16.598-37-36.999s16.598-36.999,37-36.999s37,16.598,37,36.999     S380.703,245.15,360.301,245.15z M360.301,186.152c-12.13,0-22,9.869-22,21.999s9.869,21.999,22,21.999s22-9.869,22-21.999     S372.432,186.152,360.301,186.152z"></path></g><g><path d="M436.386,304.149c-20.401,0-36.999-16.598-36.999-36.999c0-20.402,16.598-37,36.999-37s37,16.598,37,37     C473.386,287.552,456.788,304.149,436.386,304.149z M436.386,245.15c-12.13,0-21.999,9.869-21.999,22     c0,12.13,9.869,21.999,21.999,21.999s22-9.869,22-21.999C458.386,255.02,448.517,245.15,436.386,245.15z"></path></g><g><path d="M217.264,145.526c-2.664,0-5.244-1.422-6.602-3.929c-1.971-3.638-0.623-8.184,3.01-10.16     c3.827-2.104,9.731-6.89,10.264-10.491c0.069-0.468,0.253-1.713-1.897-3.911c-2.808-2.869-5.766-5.422-8.626-7.891     c-9.531-8.224-22.583-19.488-8.897-35.985c11.738-14.15,17.348-19.788,17.581-20.021c2.929-2.928,7.678-2.928,10.606,0     c2.929,2.93,2.929,7.678,0,10.607c-0.048,0.048-5.444,5.491-16.643,18.99c-3.722,4.486-4.293,5.176,7.152,15.054     c2.952,2.547,6.297,5.434,9.548,8.756c6.101,6.235,6.633,12.497,6.005,16.652c-1.872,12.393-16.298,20.535-17.937,21.423     C219.694,145.235,218.47,145.526,217.264,145.526z"></path></g><g><path d="M257.983,130.119c-2.664,0-5.244-1.422-6.602-3.929c-1.971-3.638-0.623-8.184,3.01-10.16     c3.827-2.104,9.731-6.89,10.264-10.491c0.069-0.468,0.253-1.713-1.897-3.911c-2.808-2.869-5.766-5.422-8.626-7.891     c-9.531-8.224-22.583-19.488-8.897-35.985c11.738-14.149,17.348-19.788,17.581-20.021c2.929-2.93,7.677-2.929,10.607-0.001     c2.929,2.929,2.929,7.678,0,10.606c-0.048,0.049-5.444,5.492-16.643,18.991c-3.722,4.486-4.293,5.176,7.152,15.054     c2.952,2.547,6.297,5.434,9.548,8.756c6.101,6.235,6.633,12.497,6.005,16.652c-1.872,12.393-16.298,20.535-17.937,21.423     C260.413,129.828,259.189,130.119,257.983,130.119z"></path></g><g><path d="M301.551,145.526c-2.664,0-5.244-1.422-6.602-3.929c-1.97-3.637-0.624-8.181,3.007-10.158     c3.827-2.104,9.734-6.891,10.267-10.493c0.069-0.468,0.253-1.713-1.897-3.911c-2.808-2.87-5.766-5.422-8.626-7.891     c-9.531-8.225-22.583-19.488-8.897-35.985c11.738-14.149,17.348-19.788,17.581-20.021c2.929-2.93,7.677-2.929,10.607-0.001     c2.929,2.929,2.929,7.678,0,10.606c-0.048,0.049-5.444,5.492-16.643,18.991c-3.722,4.486-4.293,5.176,7.152,15.053     c2.952,2.548,6.297,5.435,9.548,8.757c6.101,6.235,6.633,12.497,6.005,16.652c-1.872,12.393-16.298,20.535-17.937,21.423     C303.981,145.235,302.757,145.526,301.551,145.526z"></path></g></g></g></svg>