<svg xmlns="http://www.w3.org/2000/svg" xmlns:xlink="http://www.w3.org/1999/xlink" height="800px" width="800px" id="Capa_1" viewBox="0 0 47.874 47.874" xml:space="preserve"><g>	<g>		<path style="fill:#030104;" d="M42.004,43.754l-1.215-7.576c-0.296-1.838-0.839-3.807-2.584-4.665l-2.797-4.425l-0.311-0.119   c-0.243-0.093-0.52-0.14-0.82-0.14c-2.603,0-7.745,3.729-7.797,3.767l-0.178,0.131l-1.081,1.974   c-0.898,0.515-2.683,0.433-3.609-0.151l-0.835-1.72l-0.182-0.143c-1.19-0.932-5.463-3.138-7.756-3.138   c-0.396,0-0.73,0.06-1.023,0.182l-0.34,0.142l-1.828,3.596c-1.9,1.044-2.308,3.489-2.51,4.7L5.874,43.75   c-0.181,1.086,0.086,2.116,0.752,2.903s1.64,1.221,2.741,1.221h29.125c1.099,0,2.073-0.433,2.743-1.219   C41.905,45.869,42.178,44.839,42.004,43.754z M39.713,45.357c-0.284,0.332-0.718,0.516-1.222,0.516H9.367   c-0.503,0-0.935-0.183-1.215-0.514c-0.28-0.33-0.388-0.785-0.306-1.281l1.264-7.581c0.248-1.485,0.621-2.92,1.662-3.354   l0.339-0.142l1.755-3.452c1.549,0.02,5.036,1.677,6.32,2.582l0.84,1.729l0.182,0.143c0.86,0.674,2.104,1.061,3.415,1.061   c1.147,0,2.194-0.305,2.948-0.857l0.179-0.132l1.094-1.996c1.847-1.327,4.963-3.127,6.305-3.243l2.708,4.285l0.311,0.119   c1.055,0.401,1.425,1.871,1.647,3.255l1.215,7.575C40.109,44.567,39.997,45.024,39.713,45.357z"></path>		<circle style="fill:#030104;" cx="18.534" cy="14.523" r="1.375"></circle>		<path style="fill:#030104;" d="M14.992,35.51c-0.965,0-1.75,0.785-1.75,1.75s0.785,1.75,1.75,1.75s1.75-0.785,1.75-1.75   S15.957,35.51,14.992,35.51z M14.992,38.26c-0.551,0-1-0.448-1-1s0.449-1,1-1s1,0.448,1,1S15.543,38.26,14.992,38.26z"></path>		<path style="fill:#030104;" d="M14.992,41.175c-0.965,0-1.75,0.785-1.75,1.75s0.785,1.75,1.75,1.75s1.75-0.785,1.75-1.75   S15.957,41.175,14.992,41.175z M14.992,43.925c-0.551,0-1-0.448-1-1s0.449-1,1-1s1,0.448,1,1S15.543,43.925,14.992,43.925z"></path>		<path style="fill:#030104;" d="M31.91,35.51c-0.965,0-1.75,0.785-1.75,1.75s0.785,1.75,1.75,1.75s1.75-0.785,1.75-1.75   S32.875,35.51,31.91,35.51z M31.91,38.26c-0.552,0-1-0.448-1-1s0.448-1,1-1s1,0.448,1,1S32.461,38.26,31.91,38.26z"></path>		<path style="fill:#030104;" d="M31.91,41.175c-0.965,0-1.75,0.785-1.75,1.75s0.785,1.75,1.75,1.75s1.75-0.785,1.75-1.75   S32.875,41.175,31.91,41.175z M31.91,43.925c-0.552,0-1-0.448-1-1s0.448-1,1-1s1,0.448,1,1S32.461,43.925,31.91,43.925z"></path>		<circle style="fill:#030104;" cx="27.221" cy="14.523" r="1.375"></circle>		<path style="fill:#030104;" d="M14.952,5.599l4.103-0.666c2.267-0.368,5.94-0.368,8.207,0c2.265,0.368,4.102,0.666,4.102,0.666   c1.095,0.152,1.982-0.593,1.982-1.662s0-1.937,0-1.937c0-1.104-0.896-2-2-2H14.971c-1.105,0-2,0.896-2,2v1.937   C12.971,5.007,13.857,5.751,14.952,5.599z"></path>		<path style="fill:#030104;" d="M13.242,15.703c0.02,0.021,0.046,0.04,0.07,0.054c0.143,0.075,0.32,0.02,0.395-0.123l0.021-0.04   c0.013-0.025,0.026-0.044,0.04-0.069l0.642,7.998c0,2.205,1.794,3.999,4,3.999h9.5c2.206,0,4-1.794,3.997-3.919l0.655-8.217   c0.008,0.012,0.014,0.021,0.021,0.033l0.033,0.054c0.01,0.015,0.02,0.029,0.032,0.042c0.111,0.122,0.3,0.13,0.421,0.019   c1.186-1.085,1.512-2.77,1.057-4.356c-0.406-1.38-1.412-2.654-2.664-3.207c-0.694-0.582-1.577-0.947-2.553-0.947h-5.037   c-0.26-0.096-0.521-0.195-0.785-0.302c-0.621-0.227-1.265-0.426-1.925-0.525c-0.66-0.102-1.33-0.083-2.02-0.055   c-1.366,0.068-2.878,0.326-4.219,1.237c-1.331,0.877-2.47,2.375-2.782,4.008c-0.166,0.806-0.148,1.616,0.046,2.354   C12.374,14.478,12.699,15.149,13.242,15.703z M29.91,23.523c0,1.102-0.897,1.999-2,1.999h-9.5c-1.103,0-2-0.897-2.003-2.079   l-0.828-10.32c0.037-0.031,0.074-0.072,0.111-0.101c0.663-0.517,1.254-0.764,1.945-1.071c0.688-0.285,1.454-0.741,2.392-1.104   c0.465-0.187,0.962-0.315,1.473-0.512c0.511-0.192,1.042-0.439,1.596-0.667c1.112-0.505,2.281-0.761,3.371-0.436   c1.099,0.283,1.928,1.381,2.466,2.127c0.558,0.739,1.104,0.993,1.669,1.545c0.047,0.042,0.097,0.097,0.144,0.143L29.91,23.523z"></path>		<path style="fill:#030104;" d="M25.615,20.045c-2.589,1.896-4.79,0.099-4.883,0.021c-0.211-0.177-0.526-0.15-0.704,0.06   s-0.152,0.524,0.057,0.703c0.019,0.016,1.294,1.076,3.104,1.076c0.902,0,1.938-0.264,3.016-1.053   c0.224-0.163,0.271-0.476,0.108-0.699C26.15,19.929,25.836,19.881,25.615,20.045z"></path>	</g></g></svg>